<mxfile host="app.diagrams.net" modified="2023-08-31T07:44:53.407Z" agent="Mozilla/5.0 (Windows NT 10.0; Win64; x64) AppleWebKit/537.36 (KHTML, like Gecko) Chrome/115.0.0.0 Safari/537.36" etag="i6_YvHJLjANzrkA_P_MX" version="21.7.1" type="github">
  <diagram id="prtHgNgQTEPvFCAcTncT" name="调度任务-创建批跑需求">
    <mxGraphModel dx="1674" dy="758" grid="1" gridSize="10" guides="1" tooltips="1" connect="1" arrows="1" fold="1" page="1" pageScale="1" pageWidth="2336" pageHeight="1654" background="none" math="0" shadow="0">
      <root>
        <mxCell id="0" />
        <mxCell id="1" parent="0" />
        <mxCell id="-lC3zuQgpXUrJnm6Bv9B-53" value="" style="rounded=0;whiteSpace=wrap;html=1;" vertex="1" parent="1">
          <mxGeometry x="40" y="50" width="320" height="360" as="geometry" />
        </mxCell>
        <mxCell id="-lC3zuQgpXUrJnm6Bv9B-17" style="edgeStyle=orthogonalEdgeStyle;rounded=0;orthogonalLoop=1;jettySize=auto;html=1;exitX=0.9;exitY=0.5;exitDx=0;exitDy=0;exitPerimeter=0;curved=1;" edge="1" parent="1" source="-lC3zuQgpXUrJnm6Bv9B-10" target="-lC3zuQgpXUrJnm6Bv9B-16">
          <mxGeometry relative="1" as="geometry" />
        </mxCell>
        <mxCell id="-lC3zuQgpXUrJnm6Bv9B-18" value="编写筛选SQL" style="edgeLabel;html=1;align=center;verticalAlign=middle;resizable=0;points=[];" vertex="1" connectable="0" parent="-lC3zuQgpXUrJnm6Bv9B-17">
          <mxGeometry x="0.0174" y="-2" relative="1" as="geometry">
            <mxPoint as="offset" />
          </mxGeometry>
        </mxCell>
        <mxCell id="-lC3zuQgpXUrJnm6Bv9B-10" value="风控策略" style="shape=actor;whiteSpace=wrap;html=1;labelPosition=center;verticalLabelPosition=middle;align=center;verticalAlign=middle;" vertex="1" parent="1">
          <mxGeometry x="60" y="240" width="40" height="60" as="geometry" />
        </mxCell>
        <mxCell id="-lC3zuQgpXUrJnm6Bv9B-33" style="edgeStyle=none;rounded=0;orthogonalLoop=1;jettySize=auto;html=1;exitX=0.5;exitY=1;exitDx=0;exitDy=0;entryX=0.5;entryY=0;entryDx=0;entryDy=0;" edge="1" parent="1" source="-lC3zuQgpXUrJnm6Bv9B-16" target="-lC3zuQgpXUrJnm6Bv9B-32">
          <mxGeometry relative="1" as="geometry" />
        </mxCell>
        <mxCell id="-lC3zuQgpXUrJnm6Bv9B-16" value="ETL查询任务" style="rounded=0;whiteSpace=wrap;html=1;" vertex="1" parent="1">
          <mxGeometry x="200" y="190" width="120" height="60" as="geometry" />
        </mxCell>
        <mxCell id="-lC3zuQgpXUrJnm6Bv9B-32" value="获取用户名单" style="shape=parallelogram;perimeter=parallelogramPerimeter;whiteSpace=wrap;html=1;fixedSize=1;fillColor=#f8cecc;strokeColor=#b85450;" vertex="1" parent="1">
          <mxGeometry x="200" y="310" width="120" height="60" as="geometry" />
        </mxCell>
        <mxCell id="-lC3zuQgpXUrJnm6Bv9B-68" style="edgeStyle=none;rounded=0;orthogonalLoop=1;jettySize=auto;html=1;exitX=1;exitY=0.5;exitDx=0;exitDy=0;entryX=0;entryY=0.5;entryDx=0;entryDy=0;" edge="1" parent="1" source="-lC3zuQgpXUrJnm6Bv9B-35" target="-lC3zuQgpXUrJnm6Bv9B-58">
          <mxGeometry relative="1" as="geometry" />
        </mxCell>
        <mxCell id="-lC3zuQgpXUrJnm6Bv9B-69" value="拉取字段" style="edgeLabel;html=1;align=center;verticalAlign=middle;resizable=0;points=[];" vertex="1" connectable="0" parent="-lC3zuQgpXUrJnm6Bv9B-68">
          <mxGeometry x="0.0571" y="-1" relative="1" as="geometry">
            <mxPoint y="1" as="offset" />
          </mxGeometry>
        </mxCell>
        <mxCell id="-lC3zuQgpXUrJnm6Bv9B-35" value="" style="rounded=0;whiteSpace=wrap;html=1;" vertex="1" parent="1">
          <mxGeometry x="568" y="285" width="240" height="115" as="geometry" />
        </mxCell>
        <mxCell id="-lC3zuQgpXUrJnm6Bv9B-39" value="策略规则" style="rounded=0;whiteSpace=wrap;html=1;" vertex="1" parent="1">
          <mxGeometry x="588" y="319" width="65" height="25" as="geometry" />
        </mxCell>
        <mxCell id="-lC3zuQgpXUrJnm6Bv9B-43" style="rounded=0;orthogonalLoop=1;jettySize=auto;html=1;exitX=0.5;exitY=1;exitDx=0;exitDy=0;exitPerimeter=0;entryX=0.5;entryY=0;entryDx=0;entryDy=0;shape=link;" edge="1" parent="1" source="-lC3zuQgpXUrJnm6Bv9B-42" target="-lC3zuQgpXUrJnm6Bv9B-16">
          <mxGeometry relative="1" as="geometry" />
        </mxCell>
        <mxCell id="-lC3zuQgpXUrJnm6Bv9B-42" value="大数据库Spark" style="shape=cylinder3;whiteSpace=wrap;html=1;boundedLbl=1;backgroundOutline=1;size=15;" vertex="1" parent="1">
          <mxGeometry x="230" y="60" width="60" height="80" as="geometry" />
        </mxCell>
        <mxCell id="-lC3zuQgpXUrJnm6Bv9B-45" value="" style="rounded=0;whiteSpace=wrap;html=1;" vertex="1" parent="1">
          <mxGeometry x="488" y="40" width="680" height="110" as="geometry" />
        </mxCell>
        <mxCell id="-lC3zuQgpXUrJnm6Bv9B-46" value="贷后批跑系统" style="text;html=1;strokeColor=none;fillColor=none;align=center;verticalAlign=middle;whiteSpace=wrap;rounded=0;fontStyle=1" vertex="1" parent="1">
          <mxGeometry x="800.5" y="40" width="100" height="30" as="geometry" />
        </mxCell>
        <mxCell id="-lC3zuQgpXUrJnm6Bv9B-47" value="创建批跑需求" style="rounded=0;whiteSpace=wrap;html=1;" vertex="1" parent="1">
          <mxGeometry x="506" y="80" width="92" height="40" as="geometry" />
        </mxCell>
        <mxCell id="-lC3zuQgpXUrJnm6Bv9B-48" value="创建批跑任务" style="rounded=0;whiteSpace=wrap;html=1;" vertex="1" parent="1">
          <mxGeometry x="616" y="80" width="92" height="40" as="geometry" />
        </mxCell>
        <mxCell id="-lC3zuQgpXUrJnm6Bv9B-49" value="执行任务批跑" style="rounded=0;whiteSpace=wrap;html=1;" vertex="1" parent="1">
          <mxGeometry x="722" y="80" width="92" height="40" as="geometry" />
        </mxCell>
        <mxCell id="-lC3zuQgpXUrJnm6Bv9B-50" value="创建申请单" style="rounded=0;whiteSpace=wrap;html=1;" vertex="1" parent="1">
          <mxGeometry x="828" y="80" width="92" height="40" as="geometry" />
        </mxCell>
        <mxCell id="-lC3zuQgpXUrJnm6Bv9B-51" value="执行申请单" style="rounded=0;whiteSpace=wrap;html=1;" vertex="1" parent="1">
          <mxGeometry x="938" y="80" width="92" height="40" as="geometry" />
        </mxCell>
        <mxCell id="-lC3zuQgpXUrJnm6Bv9B-52" value="输出批跑结果" style="rounded=0;whiteSpace=wrap;html=1;" vertex="1" parent="1">
          <mxGeometry x="1058" y="80" width="92" height="40" as="geometry" />
        </mxCell>
        <mxCell id="-lC3zuQgpXUrJnm6Bv9B-55" style="edgeStyle=orthogonalEdgeStyle;rounded=0;orthogonalLoop=1;jettySize=auto;html=1;fontSize=8;curved=1;" edge="1" parent="1" source="-lC3zuQgpXUrJnm6Bv9B-54" target="-lC3zuQgpXUrJnm6Bv9B-35">
          <mxGeometry relative="1" as="geometry" />
        </mxCell>
        <mxCell id="-lC3zuQgpXUrJnm6Bv9B-56" value="编写策略规则" style="edgeLabel;html=1;align=center;verticalAlign=middle;resizable=0;points=[];" vertex="1" connectable="0" parent="-lC3zuQgpXUrJnm6Bv9B-55">
          <mxGeometry x="0.0698" y="1" relative="1" as="geometry">
            <mxPoint as="offset" />
          </mxGeometry>
        </mxCell>
        <mxCell id="-lC3zuQgpXUrJnm6Bv9B-54" value="风控策略" style="shape=actor;whiteSpace=wrap;html=1;labelPosition=center;verticalLabelPosition=middle;align=center;verticalAlign=middle;fontSize=10;" vertex="1" parent="1">
          <mxGeometry x="400" y="350" width="40" height="60" as="geometry" />
        </mxCell>
        <mxCell id="-lC3zuQgpXUrJnm6Bv9B-58" value="" style="rounded=0;whiteSpace=wrap;html=1;" vertex="1" parent="1">
          <mxGeometry x="938" y="282.5" width="250" height="115" as="geometry" />
        </mxCell>
        <mxCell id="-lC3zuQgpXUrJnm6Bv9B-59" value="离线字段" style="shape=datastore;whiteSpace=wrap;html=1;" vertex="1" parent="1">
          <mxGeometry x="958" y="317.5" width="60" height="60" as="geometry" />
        </mxCell>
        <mxCell id="-lC3zuQgpXUrJnm6Bv9B-60" value="实时字段" style="shape=datastore;whiteSpace=wrap;html=1;" vertex="1" parent="1">
          <mxGeometry x="1038" y="316.5" width="60" height="60" as="geometry" />
        </mxCell>
        <mxCell id="-lC3zuQgpXUrJnm6Bv9B-61" value="第三方字段" style="shape=datastore;whiteSpace=wrap;html=1;" vertex="1" parent="1">
          <mxGeometry x="1118" y="316.5" width="60" height="60" as="geometry" />
        </mxCell>
        <mxCell id="-lC3zuQgpXUrJnm6Bv9B-62" value="索骥字段系统" style="text;html=1;strokeColor=none;fillColor=none;align=center;verticalAlign=middle;whiteSpace=wrap;rounded=0;fontStyle=1" vertex="1" parent="1">
          <mxGeometry x="1018" y="282.5" width="100" height="30" as="geometry" />
        </mxCell>
        <mxCell id="-lC3zuQgpXUrJnm6Bv9B-63" value="米霍克决策引擎" style="text;html=1;strokeColor=none;fillColor=none;align=center;verticalAlign=middle;whiteSpace=wrap;rounded=0;fontStyle=1" vertex="1" parent="1">
          <mxGeometry x="605.5" y="289" width="95" height="30" as="geometry" />
        </mxCell>
        <mxCell id="-lC3zuQgpXUrJnm6Bv9B-64" value="策略规则" style="rounded=0;whiteSpace=wrap;html=1;" vertex="1" parent="1">
          <mxGeometry x="658" y="319" width="65" height="25" as="geometry" />
        </mxCell>
        <mxCell id="-lC3zuQgpXUrJnm6Bv9B-65" value="策略规则" style="rounded=0;whiteSpace=wrap;html=1;" vertex="1" parent="1">
          <mxGeometry x="735.5" y="319" width="65" height="25" as="geometry" />
        </mxCell>
        <mxCell id="-lC3zuQgpXUrJnm6Bv9B-71" value="Text" style="text;html=1;strokeColor=none;fillColor=none;align=center;verticalAlign=middle;whiteSpace=wrap;rounded=0;" vertex="1" parent="1">
          <mxGeometry x="500" y="290" width="60" height="30" as="geometry" />
        </mxCell>
        <mxCell id="-lC3zuQgpXUrJnm6Bv9B-72" value="&lt;b&gt;&lt;font style=&quot;font-size: 14px;&quot;&gt;大数据库Spark&lt;/font&gt;&lt;/b&gt;" style="text;html=1;strokeColor=none;fillColor=none;align=center;verticalAlign=middle;whiteSpace=wrap;rounded=0;" vertex="1" parent="1">
          <mxGeometry x="80" y="70" width="110" height="50" as="geometry" />
        </mxCell>
      </root>
    </mxGraphModel>
  </diagram>
</mxfile>
